<mxfile host="app.diagrams.net" modified="2023-02-23T03:03:13.224Z" agent="5.0 (Macintosh; Intel Mac OS X 10_15_7) AppleWebKit/605.1.15 (KHTML, like Gecko) Version/16.3 Safari/605.1.15" etag="RTEzQQJtkPp9_ex0bOxd" version="20.8.23" type="github">
  <diagram name="第 1 页" id="-3oY8U69ml2H9E9dqWh5">
    <mxGraphModel dx="1425" dy="945" grid="1" gridSize="10" guides="1" tooltips="1" connect="1" arrows="1" fold="1" page="1" pageScale="1" pageWidth="827" pageHeight="1169" math="0" shadow="0">
      <root>
        <mxCell id="0" />
        <mxCell id="1" parent="0" />
        <mxCell id="5nTDPpgoF1n0D92lt2fB-5" value="新支付前校验" style="swimlane;childLayout=stackLayout;resizeParent=1;resizeParentMax=0;startSize=20;html=1;" vertex="1" parent="1">
          <mxGeometry x="210" y="150" width="1200" height="730" as="geometry" />
        </mxCell>
        <mxCell id="5nTDPpgoF1n0D92lt2fB-6" value="order-manage" style="swimlane;startSize=20;html=1;" vertex="1" parent="5nTDPpgoF1n0D92lt2fB-5">
          <mxGeometry y="20" width="480" height="710" as="geometry" />
        </mxCell>
        <mxCell id="5nTDPpgoF1n0D92lt2fB-7" value="booking-service" style="swimlane;startSize=20;html=1;" vertex="1" parent="5nTDPpgoF1n0D92lt2fB-5">
          <mxGeometry x="480" y="20" width="390" height="710" as="geometry" />
        </mxCell>
        <mxCell id="5nTDPpgoF1n0D92lt2fB-8" value="xxxx-processor" style="swimlane;startSize=20;html=1;" vertex="1" parent="5nTDPpgoF1n0D92lt2fB-5">
          <mxGeometry x="870" y="20" width="330" height="710" as="geometry" />
        </mxCell>
      </root>
    </mxGraphModel>
  </diagram>
</mxfile>
